<svg width="50" height="50" viewBox="0 0 50 50" fill="none" xmlns="http://www.w3.org/2000/svg">
<rect opacity="0.2" width="50" height="50" rx="5" fill="white"/>
<path opacity="0.2" d="M14.2917 38.625H34.7083C35.4819 38.625 36.2237 38.3177 36.7707 37.7707C37.3177 37.2237 37.625 36.4819 37.625 35.7083V15.2917C37.625 14.5181 37.3177 13.7763 36.7707 13.2293C36.2237 12.6823 35.4819 12.375 34.7083 12.375H14.2917C13.5181 12.375 12.7763 12.6823 12.2293 13.2293C11.6823 13.7763 11.375 14.5181 11.375 15.2917V35.7083C11.375 36.4819 11.6823 37.2237 12.2293 37.7707C12.7763 38.3177 13.5181 38.625 14.2917 38.625ZM18.6667 28.4167L22.1127 31.8627L27.4167 24.0417L34.7083 34.25H14.2917L18.6667 28.4167Z" fill="#E0E6EA"/>
</svg>
